# xmcd
#
# Track frame offsets:
#	150
#	10110
#	23038
#	34094
#	46082
#	57816
#	68656
#	78134
#	88552
#	104875
#
# Disc length: 1608 seconds
#
# Revision: 0
# Processed by: cddbd v1.5.1PL0 Copyright (c) Steve Scherf et al.
# Submitted via: dBpowerAMP V4.0
#
DISCID=6e06460a
DTITLE=Lalo Gonzalez "Piporro" - Joyas Musicales Vol. 3
DYEAR=2003
DGENRE=Polka
TTITLE0=A Golpe de Tacon, Lalo Gonzalez "Piporro"
TTITLE1=Nos Persiguen, Lalo Gonzalez "Piporro"
TTITLE2=Lo Mio es Mio, Lalo Gonzalez "Piporro"
TTITLE3=Rockola Cantinera, Paco Javier
TTITLE4=Bailando con Teresa, Lalo Gonzalez "Piporro"
TTITLE5=Paque no empiezen a Hablar, Lalo Gonzalez "Piporro"
TTITLE6=Acapulco, Lalo Gonzalez "Piporro"
TTITLE7=Soy del Norte, Lalo Gonzalez "Piporro"
TTITLE8=Ellos las Prefieren Gordas, Gurruchaga
TTITLE9=Las Posadas, Lalo Gonzalez "Piporro"
EXTD=Joyas Musicales El Piporro Vol. 3
EXTT0=
EXTT1=
EXTT2=
EXTT3=
EXTT4=
EXTT5=
EXTT6=
EXTT7=
EXTT8=
EXTT9=
PLAYORDER=
